<svg width="19" height="19" viewBox="0 0 19 19" fill="none" xmlns="http://www.w3.org/2000/svg">
<circle cx="9.5" cy="9.5" r="9" stroke="black" stroke-opacity="0.1"/>
<path d="M12.6712 8.18489L7.76756 6.03413C7.71902 6.01275 7.66671 6.00118 7.61365 6.00009C7.56059 5.99899 7.50784 6.00838 7.45845 6.02773C7.4091 6.04716 7.3641 6.07615 7.32607 6.11302C7.28803 6.14989 7.25771 6.1939 7.23685 6.24252L6.03252 9.04248C5.99058 9.13997 5.98922 9.25007 6.02875 9.34856C6.06827 9.44705 6.14544 9.52586 6.24328 9.56767L9.03613 10.7601L8.53834 12H6.80289V10.8001H6V14H6.80289V12.8H8.53834C8.86873 12.8 9.16138 12.6024 9.28342 12.2968L9.77399 11.0752L11.1465 11.6612C11.2439 11.7029 11.3539 11.7046 11.4525 11.6657C11.5511 11.6269 11.6303 11.5508 11.6728 11.454L12.8772 8.71128C12.9198 8.61425 12.922 8.50434 12.8834 8.40566C12.8448 8.30699 12.7685 8.22759 12.6712 8.18489ZM13.1979 11.7488L12.452 11.452L13.2541 9.45207L14 9.74847L13.1979 11.7488Z" fill="#666666"/>
</svg>
