<svg width="20" height="20" viewBox="0 0 20 20" fill="none" xmlns="http://www.w3.org/2000/svg">
<circle cx="10" cy="10" r="10" fill="#FF5100"/>
<path d="M12.8561 7.86217C12.6939 8.42029 12.2649 9.43925 11.1768 10.0332C11.5796 9.08594 11.7627 8.04138 11.1768 6.90466C10.7792 6.1366 9.79037 5.32758 9.22535 4.91283C9.06317 4.79506 8.84344 4.89235 8.81205 5.08693C8.73357 5.57848 8.43014 6.42846 7.35241 7.47302C6.08635 8.69679 5.29114 9.94616 5.29114 11.1699C5.29114 12.5883 6.20145 14.3753 7.62446 14.7798C7.85465 14.8464 8.03776 14.6057 7.9279 14.4009C6.78216 12.3271 8.82251 10.5965 8.82251 10.5965C8.82251 13.1566 9.99964 14.8617 11.7627 14.8617C12.741 14.8617 14.7029 14.2934 14.7029 11.1648C14.7029 9.3266 13.7978 8.22572 13.2799 7.7444C13.2475 7.71344 13.2075 7.69124 13.1637 7.67997C13.1199 7.6687 13.0739 7.66874 13.0301 7.68009C12.9863 7.69145 12.9463 7.71372 12.914 7.74474C12.8817 7.77575 12.8581 7.81445 12.8457 7.85705L12.8561 7.86217Z" fill="white"/>
</svg>
