<svg width="44" height="43" viewBox="0 0 44 43" fill="none" xmlns="http://www.w3.org/2000/svg">
<path d="M31.3715 3.93285C33.3042 4.0645 35.1237 4.89181 36.4934 6.26166C37.8631 7.63152 38.6901 9.45118 38.8215 11.3839C38.9404 13.1305 39.6282 14.7901 40.7795 16.1089C42.0532 17.5685 42.7551 19.4401 42.7551 21.3774C42.7551 23.3146 42.0532 25.1862 40.7795 26.6459C39.6283 27.965 38.941 29.625 38.8225 31.3719C38.6909 33.3045 37.8636 35.1241 36.4937 36.4937C35.1239 37.8634 33.3042 38.6905 31.3715 38.8219C29.6246 38.9406 27.9646 39.6283 26.6455 40.7799C25.186 42.0538 23.3143 42.7557 21.377 42.7557C19.4397 42.7557 17.5681 42.0538 16.1085 40.7799C14.7896 39.6289 13.13 38.9415 11.3835 38.8229C9.45087 38.6912 7.63132 37.8639 6.26165 36.494C4.89198 35.1242 4.06491 33.3045 3.93353 31.3719C3.81482 29.6249 3.12708 27.9649 1.97553 26.6459C0.701809 25.1862 0 23.3146 0 21.3774C0 19.4401 0.701809 17.5685 1.97553 16.1089C3.12646 14.7899 3.81381 13.1303 3.93253 11.3839C4.06417 9.45119 4.89148 7.63165 6.26134 6.26198C7.63119 4.8923 9.45085 4.06524 11.3835 3.93385C13.1305 3.81508 14.7904 3.12735 16.1095 1.97585C17.5691 0.701939 19.4407 0 21.378 0C23.3153 0 25.187 0.701939 26.6465 1.97585C27.9655 3.12679 29.625 3.81414 31.3715 3.93285Z" fill="url(#paint0_radial_2050_2)"/>
<path fill-rule="evenodd" clip-rule="evenodd" d="M43.3774 32.7699C43.3774 38.0919 39.1454 42.4429 33.8074 42.7519V42.7699H33.3074C33.2351 42.7707 33.1628 42.7707 33.0904 42.7699H19.8804C19.8304 42.7705 19.7804 42.7705 19.7304 42.7699H19.3754V42.7569C16.0254 42.5379 13.3774 39.7999 13.3774 36.4539C13.3774 32.9659 16.2554 30.1379 19.8054 30.1379C21.0374 30.1379 22.1894 30.4789 23.1674 31.0689C23.9894 26.3569 28.1674 22.7699 33.1994 22.7699C38.8194 22.7699 43.3774 27.2469 43.3774 32.7699Z" fill="url(#paint1_radial_2050_2)" fill-opacity="0.95"/>
<defs>
<radialGradient id="paint0_radial_2050_2" cx="0" cy="0" r="1" gradientUnits="userSpaceOnUse" gradientTransform="translate(7.73953 7.45985) rotate(54.3177) scale(26.7289 26.7151)">
<stop offset="0.016" stop-color="#FFBB29"/>
<stop offset="0.393" stop-color="#FCB224"/>
<stop offset="0.967" stop-color="#E47100"/>
</radialGradient>
<radialGradient id="paint1_radial_2050_2" cx="0" cy="0" r="1" gradientUnits="userSpaceOnUse" gradientTransform="translate(43.3774 50.2699) rotate(-132.879) scale(28.6575 68.8231)">
<stop stop-color="#B9B4AE"/>
<stop offset="1" stop-color="white"/>
</radialGradient>
</defs>
</svg>
